<svg width="33" height="32" viewBox="0 0 33 32" fill="none" xmlns="http://www.w3.org/2000/svg">
<path d="M19 3.02246C26.3499 3.02246 32.333 9.00562 32.333 16.3555C32.3329 23.7055 26.3498 29.6885 19 29.6885C14.2083 29.6885 9.7583 27.0969 7.3916 22.9219L8.5498 22.2637C10.6833 26.022 14.6833 28.3555 19 28.3555C25.6166 28.3555 30.9999 22.9721 31 16.3555C31 9.73877 25.6167 4.35547 19 4.35547C14.6917 4.35547 10.6919 6.68066 8.55859 10.4307L7.40039 9.77246C9.76709 5.60571 14.2083 3.02246 19 3.02246ZM11.667 21.0215H3V19.6885H11.667V21.0215ZM25.8672 10.4346L21.2939 15.0078C21.5282 15.4042 21.666 15.8641 21.666 16.3555C21.6657 17.822 20.4663 19.0214 19 19.0215C17.5334 19.0215 16.3333 17.822 16.333 16.3555C16.333 14.8889 17.5332 13.6885 19 13.6885C19.4935 13.6885 19.955 13.8273 20.3525 14.0635L24.9248 9.49219L25.8672 10.4346ZM19 15.0215C18.2666 15.0215 17.666 15.6223 17.666 16.3555C17.6663 17.0886 18.2668 17.6885 19 17.6885C19.7329 17.6883 20.3327 17.0886 20.333 16.3555C20.333 15.6224 19.733 15.0216 19 15.0215ZM9 17.0215H0.333008V15.6885H9V17.0215ZM11.667 13.0215H3V11.6885H11.667V13.0215Z" fill="url(#paint0_linear_925_3186)"/>
<defs>
<linearGradient id="paint0_linear_925_3186" x1="19" y1="3.00098" x2="18.5" y2="29.001" gradientUnits="userSpaceOnUse">
<stop stop-color="#48BD42"/>
<stop offset="0.983067" stop-color="white"/>
</linearGradient>
</defs>
</svg>
