<svg width="32" height="32" viewBox="0 0 32 32" fill="none" xmlns="http://www.w3.org/2000/svg">
<g clip-path="url(#clip0_925_3195)">
<path d="M23.1062 18.7871C23.1062 18.2574 22.8385 17.7891 22.4315 17.5102C22.5795 17.273 22.6652 16.993 22.6652 16.6934C22.6652 15.8404 21.9712 15.1465 21.1183 15.1465H18.5102C18.5102 15.1465 18.5101 15.1465 18.51 15.1465C18.3559 15.1465 18.205 15.1691 18.0612 15.2127C18.1497 15.0073 18.2105 14.8004 18.238 14.6016C18.2411 14.579 18.2427 14.5561 18.2427 14.5333V12.8292C18.2427 11.1008 16.8364 9.69469 15.1078 9.69469C14.8317 9.69469 14.6078 9.91856 14.6078 10.1947V12.3914C14.6078 13.6792 13.5845 14.4005 12.501 15.1642C12.3418 15.2765 12.1794 15.3923 12.0194 15.5094H9.39373C9.1176 15.5094 8.89373 15.7333 8.89373 16.0094V23.2459C8.89373 23.522 9.1176 23.7459 9.39373 23.7459H11.9875C12.9452 24.6019 13.9065 24.88 15.021 24.88C15.8785 24.88 16.8268 24.7156 17.9334 24.5237L18.168 24.4831C18.2791 24.5082 18.3936 24.5216 18.5101 24.5216H18.5103H20.2002H20.2004C20.6123 24.5216 21.0005 24.3604 21.2931 24.0676C21.5859 23.7749 21.7471 23.3868 21.7471 22.9748C21.7471 22.7093 21.6799 22.4593 21.5616 22.2407C22.0437 21.9784 22.3715 21.4672 22.3715 20.8809C22.3715 20.6331 22.3129 20.3987 22.2089 20.1909C22.7382 19.9449 23.1062 19.4082 23.1062 18.7871ZM18.5102 16.1465H21.1183C21.4199 16.1465 21.6652 16.3918 21.6652 16.6934C21.6652 16.9949 21.4198 17.2402 21.1182 17.2402H18.5102C18.2086 17.2402 17.9633 16.9949 17.9633 16.6934C17.9633 16.5484 18.0205 16.4114 18.1244 16.3075C18.2282 16.2037 18.3652 16.1465 18.5102 16.1465ZM11.6856 22.746H9.89373V16.5096H11.6836C11.6867 20.2624 11.6867 22.0051 11.6856 22.746ZM12.6849 23.0277C12.6851 22.9633 12.6853 22.8866 12.6855 22.794C12.686 22.4921 12.6863 22.0395 12.6863 21.4361C12.6863 20.2727 12.6853 18.5469 12.6834 16.2619C12.8109 16.1696 12.9415 16.0772 13.0773 15.9815C14.2635 15.1454 15.6079 14.1977 15.6079 12.3914V10.7537C16.5446 10.9794 17.2427 11.8243 17.2427 12.8292V14.495C17.1958 14.7656 17.0009 15.1784 16.6583 15.5212C16.4882 15.6914 16.4635 15.9586 16.5995 16.1571C16.9048 16.6029 17.0086 17.0148 16.9169 17.4165C16.7377 18.2013 15.8479 18.7859 15.4736 19.0009C15.2342 19.1384 15.1515 19.4441 15.289 19.6835C15.3815 19.8444 15.5499 19.9346 15.7231 19.9346C15.8075 19.9346 15.8932 19.9131 15.9717 19.8681C16.1663 19.7563 16.4073 19.6026 16.6533 19.4085C16.7704 19.6744 16.9598 19.9016 17.1971 20.0641C17.049 20.3013 16.9634 20.5813 16.9634 20.8809C16.9634 21.2845 17.1187 21.6524 17.3728 21.9282C17.1083 22.2149 16.9634 22.5841 16.9634 22.9747C16.9634 23.212 17.0172 23.4412 17.1184 23.649C15.0602 23.9956 13.8877 24.0833 12.6849 23.0277ZM20.2002 22.4279C20.5018 22.4279 20.7471 22.6732 20.7471 22.9748C20.7471 23.1197 20.6899 23.2568 20.586 23.3606C20.4822 23.4644 20.3452 23.5216 20.2003 23.5216H18.5102H18.5102C18.3653 23.5216 18.2282 23.4644 18.1244 23.3606C18.0205 23.2568 17.9634 23.1198 17.9634 22.9747C17.9634 22.8298 18.0205 22.6928 18.1244 22.5889C18.2282 22.4851 18.3652 22.4279 18.5102 22.4279H20.2002ZM18.5102 21.4279C18.2086 21.4278 17.9633 21.1825 17.9633 20.881C17.9633 20.5794 18.2087 20.3341 18.5102 20.3341H20.8247C21.1262 20.3341 21.3715 20.5794 21.3715 20.8809C21.3715 21.1825 21.1262 21.4279 20.8247 21.4279H18.5102ZM18.0692 19.3341C17.7676 19.3341 17.5222 19.0888 17.5222 18.7872C17.5222 18.4856 17.7676 18.2402 18.0692 18.2402H21.5593C21.8609 18.2402 22.1062 18.4856 22.1062 18.7871C22.1062 19.0887 21.8609 19.3341 21.5593 19.3341H18.0692ZM11.7036 8.221C11.6885 8.36212 11.734 8.50294 11.8289 8.60844C11.9237 8.71394 12.0589 8.77419 12.2007 8.77419H19.7992C19.9411 8.77419 20.0763 8.71394 20.1711 8.60844C20.2659 8.50294 20.3115 8.36212 20.2964 8.221C20.1239 6.60887 19.0844 5.28837 17.6697 4.69794C18.1387 4.25431 18.4321 3.627 18.4321 2.93206C18.4321 1.591 17.3411 0.5 16 0.5C14.659 0.5 13.568 1.591 13.568 2.93206C13.568 3.627 13.8614 4.25431 14.3304 4.69794C12.9155 5.28837 11.8761 6.60887 11.7036 8.221ZM14.568 2.93206C14.568 2.14237 15.2104 1.5 16 1.5C16.7897 1.5 17.4321 2.14237 17.4321 2.93206C17.4321 3.72131 16.7904 4.36344 16.0013 4.36412C16.0009 4.36412 16.0005 4.36412 16 4.36412C15.9996 4.36412 15.9992 4.36412 15.9988 4.36412C15.2097 4.36344 14.568 3.72131 14.568 2.93206ZM15.9987 5.36412H16C16 5.36412 16.0009 5.36412 16.0014 5.36412C17.511 5.36469 18.7984 6.36794 19.1954 7.77425H12.8046C13.2015 6.36788 14.489 5.36469 15.9987 5.36412ZM31.4971 30.9468C31.3246 29.3346 30.2852 28.0141 28.8704 27.4237C29.3394 26.9801 29.6329 26.3528 29.6329 25.6578C29.6329 24.3167 28.5419 23.2257 27.2008 23.2257C25.8597 23.2257 24.7687 24.3167 24.7687 25.6578C24.7687 26.3528 25.0622 26.9801 25.5312 27.4237C24.1164 28.0141 23.0769 29.3346 22.9044 30.9468C22.8892 31.0879 22.9347 31.2287 23.0296 31.3342C23.1245 31.4397 23.2597 31.4999 23.4015 31.4999H31C31.1419 31.4999 31.277 31.4397 31.3719 31.3342C31.4667 31.2287 31.5122 31.0879 31.4971 30.9468ZM25.7687 25.6578C25.7687 24.8681 26.4111 24.2257 27.2008 24.2257C27.9905 24.2257 28.6329 24.8681 28.6329 25.6578C28.6329 26.4475 27.9905 27.0899 27.2008 27.0899C26.4111 27.0899 25.7687 26.4475 25.7687 25.6578ZM24.0054 30.5C24.4024 29.0933 25.6905 28.0899 27.2008 28.0899C28.711 28.0899 29.999 29.0933 30.3961 30.5H24.0054ZM6.46898 27.4237C6.93791 26.9801 7.23135 26.3528 7.23135 25.6579C7.23135 24.3168 6.14035 23.2258 4.79929 23.2258C3.45823 23.2258 2.36723 24.3168 2.36723 25.6579C2.36723 26.3528 2.66067 26.9801 3.1296 27.4237C1.71479 28.0142 0.675352 29.3347 0.502852 30.9468C0.487727 31.0879 0.533227 31.2288 0.628102 31.3342C0.722977 31.4397 0.858102 31.5 0.999977 31.5L8.59854 31.4999C8.74041 31.4999 8.8756 31.4396 8.97041 31.3342C9.06529 31.2287 9.11079 31.0878 9.09566 30.9468C8.9231 29.3346 7.88366 28.0141 6.46898 27.4237ZM3.36723 25.6578C3.36723 24.8681 4.0096 24.2257 4.79929 24.2257C5.58898 24.2257 6.23135 24.8681 6.23135 25.6578C6.23135 26.4471 5.58966 27.0892 4.80054 27.0899C4.8001 27.0899 4.79973 27.0899 4.79929 27.0899C4.79885 27.0899 4.79848 27.0899 4.79804 27.0899C4.00891 27.0892 3.36723 26.4471 3.36723 25.6578ZM1.60385 30.5C2.00079 29.0937 3.28823 28.0904 4.79798 28.0899H4.79929C4.79929 28.0899 4.80016 28.0899 4.8006 28.0899C6.31029 28.0904 7.59766 29.0936 7.99466 30.4999L1.60385 30.5ZM3.31879 21.9291C2.45735 20.0776 2.0206 18.0957 2.0206 16.0383C2.0206 10.6357 5.1246 5.77131 9.89579 3.45775L9.5156 3.38331C9.2446 3.33025 9.06791 3.06756 9.12104 2.79656C9.1741 2.52562 9.43673 2.34912 9.70779 2.402L11.7173 2.79538C11.8832 2.82788 12.0215 2.94206 12.0849 3.09888C12.1482 3.25575 12.1279 3.43394 12.031 3.57256L10.8575 5.25075C10.7602 5.38981 10.605 5.46425 10.4474 5.46425C10.3484 5.46425 10.2485 5.43494 10.1612 5.37394C9.93498 5.21575 9.87979 4.90394 10.038 4.67763L10.2247 4.41069C5.85604 6.57944 3.02066 11.0628 3.02066 16.0382C3.02066 17.9488 3.42604 19.7889 4.22548 21.5072C4.34198 21.7576 4.23348 22.055 3.9831 22.1714C3.91485 22.2033 3.8431 22.2183 3.77248 22.2183C3.58391 22.2183 3.40348 22.1112 3.31879 21.9291ZM19.841 3.10431C19.9293 2.84269 20.2131 2.70194 20.4747 2.79056C26.1598 4.71012 29.9794 10.034 29.9794 16.0383C29.9794 17.5046 29.7562 18.9326 29.3167 20.3028L29.6224 20.0849C29.8473 19.9246 30.1595 19.9769 30.3197 20.2017C30.48 20.4266 30.4277 20.7388 30.2029 20.8991L28.5355 22.0878C28.4495 22.1491 28.3478 22.1807 28.2452 22.1807C28.1835 22.1807 28.1215 22.1693 28.0623 22.146C27.9049 22.0841 27.7894 21.9468 27.7554 21.7812L27.3437 19.7752C27.2882 19.5047 27.4625 19.2404 27.733 19.1849C28.0033 19.1292 28.2678 19.3036 28.3234 19.5742L28.3924 19.9104C28.7819 18.6652 28.9794 17.3688 28.9794 16.0383C28.9794 10.4634 25.433 5.52025 20.1547 3.73794C19.8932 3.64969 19.7527 3.36594 19.841 3.10431ZM16 30.0177C13.8 30.0177 11.6609 29.5083 9.72379 28.533L9.86248 28.7963C9.99117 29.0406 9.89742 29.343 9.65304 29.4717C9.57873 29.5109 9.49904 29.5294 9.42048 29.5294C9.24079 29.5294 9.06717 29.4323 8.97766 29.2623L8.02354 27.4504C7.94466 27.3008 7.94685 27.1214 8.02935 26.9737C8.11179 26.8261 8.26329 26.7301 8.43204 26.7186L10.475 26.5799C10.7522 26.5609 10.9891 26.7694 11.0077 27.0449C11.0265 27.3204 10.8183 27.5589 10.5428 27.5776L10.1094 27.607C11.9244 28.5333 13.933 29.0177 15.9999 29.0177C18.5176 29.0177 20.9592 28.2962 23.0607 26.9311C23.2925 26.7806 23.602 26.8464 23.7524 27.0781C23.9028 27.3096 23.837 27.6192 23.6055 27.7697C21.3415 29.2404 18.7115 30.0177 16 30.0177ZM7.81498 9.83344C8.0911 9.83344 8.31498 10.0573 8.31498 10.3334C8.31498 10.6096 8.0911 10.8334 7.81498 10.8334H6.40348C6.12735 10.8334 5.90348 10.6096 5.90348 10.3334C5.90348 10.0573 6.12735 9.83344 6.40348 9.83344H7.81498ZM9.32835 10.3334C9.32835 10.0573 9.55223 9.83344 9.82835 9.83344H11.2399C11.516 9.83344 11.7399 10.0573 11.7399 10.3334C11.7399 10.6096 11.516 10.8334 11.2399 10.8334H9.82835C9.55223 10.8334 9.32835 10.6096 9.32835 10.3334ZM8.32166 11.3401C8.32166 11.064 8.54554 10.8401 8.82166 10.8401C9.09779 10.8401 9.32166 11.064 9.32166 11.3401V12.7516C9.32166 13.0278 9.09779 13.2516 8.82166 13.2516C8.54554 13.2516 8.32166 13.0278 8.32166 12.7516V11.3401ZM8.32166 9.32681V7.91525C8.32166 7.63912 8.54554 7.41525 8.82166 7.41525C9.09779 7.41525 9.32166 7.63912 9.32166 7.91525V9.32681C9.32166 9.60294 9.09779 9.82681 8.82166 9.82681C8.54554 9.82681 8.32166 9.60287 8.32166 9.32681ZM27.522 14.078C27.522 14.3541 27.2981 14.578 27.022 14.578H25.6105C25.3344 14.578 25.1105 14.3541 25.1105 14.078C25.1105 13.8019 25.3344 13.578 25.6105 13.578H27.022C27.2981 13.578 27.522 13.8019 27.522 14.078ZM23.597 14.578H22.1855C21.9094 14.578 21.6855 14.3541 21.6855 14.078C21.6855 13.8019 21.9094 13.578 22.1855 13.578H23.597C23.8732 13.578 24.097 13.8019 24.097 14.078C24.097 14.3541 23.8732 14.578 23.597 14.578ZM25.1037 15.0847V16.4962C25.1037 16.7723 24.8799 16.9962 24.6037 16.9962C24.3276 16.9962 24.1037 16.7723 24.1037 16.4962V15.0847C24.1037 14.8086 24.3276 14.5847 24.6037 14.5847C24.8799 14.5847 25.1037 14.8086 25.1037 15.0847ZM25.1037 13.0714C25.1037 13.3475 24.8799 13.5714 24.6037 13.5714C24.3276 13.5714 24.1037 13.3475 24.1037 13.0714V11.6598C24.1037 11.3837 24.3276 11.1598 24.6037 11.1598C24.8799 11.1598 25.1037 11.3837 25.1037 11.6598V13.0714Z" fill="url(#paint0_linear_925_3195)"/>
</g>
<defs>
<linearGradient id="paint0_linear_925_3195" x1="16" y1="0.5" x2="16" y2="31.5" gradientUnits="userSpaceOnUse">
<stop stop-color="#48BD42"/>
<stop offset="1" stop-color="white"/>
</linearGradient>
<clipPath id="clip0_925_3195">
<rect width="32" height="32" fill="white"/>
</clipPath>
</defs>
</svg>
