<svg width="34" height="32" viewBox="0 0 34 32" fill="none" xmlns="http://www.w3.org/2000/svg">
<path d="M17.2812 3.00009C17.3327 2.99895 17.3838 3.00838 17.4316 3.02744C17.4796 3.04661 17.524 3.075 17.5605 3.11142L20.9932 6.46884C21.0302 6.50624 21.0593 6.55096 21.0791 6.5997C21.0989 6.6484 21.1098 6.70046 21.1094 6.75302V9.6163L26.4268 6.78037C26.5202 6.73083 26.6303 6.7202 26.7314 6.75107C26.8325 6.78198 26.9169 6.85221 26.9668 6.94541L28.5264 9.86728C28.5759 9.96067 28.5864 10.0699 28.5557 10.171C28.5248 10.2722 28.4546 10.3574 28.3613 10.4073L25.2246 12.0802C26.1245 13.0165 26.9695 14.4101 27.2178 15.419L28.2217 19.4962L28.8633 20.7042L29.4502 20.3946C29.6248 20.3028 29.8289 20.2841 30.0176 20.3419C30.2064 20.3998 30.3648 20.5301 30.458 20.7042L31.9131 23.4435C32.005 23.6181 32.0245 23.8221 31.9668 24.0108C31.9089 24.1996 31.7785 24.358 31.6045 24.4513L24.3164 28.3233C24.1418 28.416 23.937 28.4349 23.748 28.377C23.5594 28.3191 23.4013 28.189 23.3086 28.0147L21.8535 25.2735C21.7614 25.0988 21.742 24.894 21.7998 24.7052C21.8577 24.5165 21.9881 24.3588 22.1621 24.2657L22.6875 23.9854L22.0664 22.8155C21.6946 22.5436 21.3807 22.2994 21.1104 22.0704V27.1144C21.1103 27.2202 21.068 27.3216 20.9932 27.3966C20.9181 27.4716 20.816 27.5138 20.71 27.5138H2.40039C2.2943 27.5138 2.1922 27.4716 2.11719 27.3966C2.04234 27.3216 2.00007 27.2203 2 27.1144V3.40048C2 3.2944 2.04217 3.1923 2.11719 3.11728C2.19219 3.04232 2.29435 3.00009 2.40039 3.00009H17.2812ZM22.5801 24.9454L23.9863 27.5929L31.1826 23.7706L29.7764 21.1251C27.3779 22.3986 24.9786 23.6719 22.5801 24.9454ZM2.7998 3.79599V26.7149H20.3096V21.3009C19.6238 20.5104 19.3976 19.7597 18.9961 18.422C18.9486 18.2623 18.8979 18.093 18.8438 17.9151L17.9355 15.9698L14.7754 17.6534C14.7102 17.6892 14.6368 17.7073 14.5625 17.7042L11.3467 17.547H9.83496C9.72896 17.547 9.62675 17.5047 9.55176 17.4298C9.47675 17.3548 9.43458 17.2526 9.43457 17.1466C9.43457 17.0405 9.47674 16.9384 9.55176 16.8634C9.62676 16.7885 9.72894 16.7462 9.83496 16.7462H11.1309L11.7617 15.6993H9.83496C9.72887 15.6993 9.62677 15.6571 9.55176 15.5821C9.47693 15.5072 9.43468 15.4058 9.43457 15.2999C9.43457 15.1938 9.47679 15.0917 9.55176 15.0167C9.62677 14.9417 9.72887 14.8995 9.83496 14.8995H12.2451L12.6826 14.1739C12.7231 14.1078 12.781 14.0539 12.8506 14.0196L15.7842 12.4561C15.5257 12.3409 15.3011 12.1603 15.1328 11.9327C13.3584 11.9333 11.584 11.9337 9.80957 11.9337C9.70348 11.9337 9.60138 11.8915 9.52637 11.8165C9.45148 11.7415 9.40918 11.6393 9.40918 11.5333C9.40929 11.4275 9.45162 11.326 9.52637 11.2511C9.60138 11.1761 9.70348 11.1339 9.80957 11.1339C11.482 11.1345 13.1547 11.1349 14.8271 11.1349C14.7876 10.7753 14.8524 10.4118 15.0137 10.088H9.83691C9.73109 10.0879 9.62962 10.0455 9.55469 9.9708C9.47969 9.8958 9.43752 9.79366 9.4375 9.68759C9.4375 9.58151 9.47967 9.4794 9.55469 9.40439C9.62963 9.32965 9.73106 9.28724 9.83691 9.2872H15.8037C16.1826 9.11284 16.6123 9.08312 17.0117 9.20322C18.0855 9.49486 19.1589 9.78924 20.2314 10.0851L20.3105 10.0431V7.15244H17.2832C17.1772 7.15236 17.0759 7.11019 17.001 7.03525C16.926 6.96031 16.8839 6.859 16.8838 6.75302V3.79599H2.7998ZM7.94727 19.8194C8.05327 19.8194 8.15547 19.8617 8.23047 19.9366C8.30525 20.0115 8.34749 20.113 8.34766 20.2188V23.4464C8.34753 23.5522 8.30525 23.6537 8.23047 23.7286C8.15545 23.8036 8.05335 23.8458 7.94727 23.8458H4.7207C4.61478 23.8457 4.51339 23.8035 4.43848 23.7286C4.36357 23.6537 4.32142 23.5523 4.32129 23.4464V20.2198C4.32129 20.1137 4.36346 20.0116 4.43848 19.9366C4.51339 19.8617 4.61479 19.8195 4.7207 19.8194H7.94727ZM21.1084 14.2735V15.0587L21.8682 16.4894C21.9105 16.582 21.9155 16.6878 21.8828 16.7843C21.8501 16.8808 21.7814 16.9611 21.6914 17.0089C21.6014 17.0566 21.4967 17.0689 21.3984 17.0421C21.3001 17.0151 21.2152 16.9514 21.1621 16.8644C20.6149 15.833 20.0676 14.8017 19.5195 13.7706C19.4796 13.6785 19.4205 13.5954 19.3467 13.5274C19.2729 13.4596 19.1857 13.4082 19.0908 13.3761C18.9958 13.3439 18.8948 13.3318 18.7949 13.3409C18.695 13.3501 18.5974 13.3799 18.5098 13.4288C18.4111 13.4735 18.3226 13.5389 18.25 13.6192C18.1776 13.6996 18.1222 13.794 18.0879 13.8966C18.0535 13.9993 18.0412 14.108 18.0508 14.2159C18.0603 14.3238 18.0917 14.4285 18.1436 14.5235C18.5004 15.2885 19.3936 16.9528 19.5996 17.6534C19.6575 17.8429 19.7111 18.0213 19.7617 18.1895C20.1574 19.5071 20.3551 20.1639 20.9805 20.8565C20.9966 20.8714 21.0111 20.8879 21.0244 20.9054C21.5105 21.3933 22.0414 21.8352 22.6094 22.2247C22.6582 22.2601 22.6984 22.3061 22.7266 22.3595L23.3916 23.6114L28.1582 21.0802L27.4932 19.8282C27.2679 19.3986 26.6187 16.3264 26.4424 15.6114C26.0462 14.4266 25.3763 13.3515 24.4873 12.4737L21.1084 14.2735ZM18.2979 22.3546C18.8235 22.3556 18.8227 23.1542 18.2969 23.1544H9.83496C9.30943 23.154 9.30943 22.3549 9.83496 22.3546H18.2979ZM5.12012 20.6183V23.046H7.54688L7.54785 20.6183H5.12012ZM18.2979 20.5108C18.8263 20.5117 18.8255 21.3096 18.2969 21.3097C15.4677 21.3097 12.6385 21.3101 9.80957 21.3106C9.2836 21.3105 9.2836 20.51 9.80957 20.5099C12.6387 20.5099 15.4684 20.5103 18.2979 20.5108ZM7.94727 14.2081C8.05324 14.2081 8.15547 14.2504 8.23047 14.3253C8.30527 14.4001 8.34742 14.5017 8.34766 14.6075V17.8351C8.34747 17.9409 8.30523 18.0424 8.23047 18.1173C8.15547 18.1923 8.05333 18.2344 7.94727 18.2345H4.7207C4.61477 18.2344 4.51339 18.1922 4.43848 18.1173C4.36356 18.0424 4.32139 17.941 4.32129 17.8351V14.6085C4.32129 14.5024 4.36346 14.4003 4.43848 14.3253C4.51337 14.2505 4.61488 14.2082 4.7207 14.2081H7.94727ZM5.12012 15.0069V17.4347H7.54688L7.54785 15.0069H5.12012ZM12.0449 16.7774L13.9004 16.8673L13.0029 15.1886V15.1876C12.6838 15.717 12.3644 16.2473 12.0449 16.7774ZM13.5645 14.5431L14.7471 16.7599L17.5986 15.2403L17.4219 14.8604C17.3258 14.6719 17.268 14.4661 17.2529 14.255C17.2379 14.044 17.2656 13.8321 17.334 13.6319C17.4024 13.4317 17.5104 13.2468 17.6514 13.089C17.7924 12.9312 17.964 12.8033 18.1553 12.713C18.3351 12.6188 18.5321 12.5617 18.7344 12.545C18.9369 12.5283 19.141 12.5528 19.334 12.6163C19.5269 12.6798 19.7055 12.7815 19.8584 12.9151C20.0113 13.0488 20.1359 13.212 20.2246 13.3946L20.4082 13.7413C22.8167 12.4579 25.2257 11.1745 27.6338 9.89072L26.4512 7.67294C22.1558 9.96296 17.8602 12.2532 13.5645 14.5431ZM7.94727 8.59677C8.05324 8.59677 8.15547 8.63908 8.23047 8.71396C8.30528 8.78873 8.34738 8.89042 8.34766 8.99619V12.2237C8.34766 12.2763 8.33748 12.3285 8.31738 12.377C8.29728 12.4256 8.2676 12.4698 8.23047 12.5069C8.1934 12.544 8.14899 12.5728 8.10059 12.5929C8.05206 12.613 7.99979 12.6241 7.94727 12.6241H4.7207C4.61489 12.624 4.51339 12.5817 4.43848 12.5069C4.36346 12.4319 4.32129 12.3298 4.32129 12.2237V8.99716C4.3213 8.8911 4.36348 8.78896 4.43848 8.71396C4.51339 8.63925 4.6149 8.59685 4.7207 8.59677H7.94727ZM16.7998 9.9747C15.9932 9.71185 15.3696 10.6039 15.7041 11.338C15.7641 11.4536 15.8488 11.5546 15.9521 11.6339C16.03 11.6935 16.1175 11.7395 16.21 11.7706L16.3037 11.797L16.7764 11.9249L19.2041 10.631L16.7998 9.9747ZM5.12012 9.3956V11.8243H7.54688L7.54785 9.3956H5.12012ZM17.6807 6.35361H19.7314L17.6807 4.34677V6.35361Z" fill="url(#paint0_linear_925_3163)"/>
<defs>
<linearGradient id="paint0_linear_925_3163" x1="16.9997" y1="3" x2="16.9997" y2="28.4099" gradientUnits="userSpaceOnUse">
<stop stop-color="#48BD42"/>
<stop offset="1" stop-color="white"/>
</linearGradient>
</defs>
</svg>
