<svg width="278" height="300" viewBox="0 0 278 300" fill="none" xmlns="http://www.w3.org/2000/svg">
<g clip-path="url(#clip0_1248_3251)">
<path d="M120.293 96.2527C120.085 94.1707 119.407 92.1631 118.31 90.3808C117.214 88.5986 115.728 87.0881 113.964 85.9632C112.199 84.8382 110.203 84.1279 108.124 83.8859C106.046 83.6438 103.939 83.8762 101.964 84.5656L102.967 84.668C98.4679 85.5679 94.4697 88.122 91.7619 91.8259C90.4392 93.6774 89.5301 95.7917 89.0961 98.0253C88.6621 100.259 88.7134 102.56 89.2465 104.772C90.3835 109.165 93.7399 112.976 98.036 114.439C100.425 115.252 102.989 115.351 105.511 115.437C107.149 115.492 108.816 115.542 110.394 115.104C112.425 114.475 114.209 113.231 115.502 111.543C116.782 109.862 117.801 107.997 118.523 106.011C119.747 102.906 120.625 99.5739 120.293 96.2527Z" fill="#2F2E41"/>
<path d="M155.964 298.656C152.397 285.242 160.318 272.167 169.574 263.116C174.507 258.292 180 254.099 185.357 249.767C190.497 245.657 195.392 241.248 200.017 236.565C208.948 227.425 216.738 216.98 221.897 205.238C226.803 194.073 229.122 181.91 227.973 169.727C226.884 158.172 222.742 146.807 215.123 137.942C214.173 136.837 213.175 135.778 212.127 134.765C211.565 134.22 210.703 135.079 211.266 135.625C219.774 143.886 224.727 155.081 226.402 166.728C228.131 178.738 226.35 190.983 221.858 202.212C217.074 214.174 209.465 224.848 200.642 234.162C196.198 238.823 191.471 243.205 186.487 247.284C181.165 251.668 175.635 255.81 170.567 260.495C161.227 269.129 152.832 281.006 153.985 294.375C154.12 295.931 154.389 297.471 154.791 298.98C154.838 299.13 154.942 299.257 155.08 299.332C155.219 299.408 155.381 299.427 155.533 299.385C155.686 299.343 155.816 299.243 155.896 299.108C155.976 298.972 156.001 298.81 155.964 298.656Z" fill="#F0F0F0"/>
<path d="M193.317 222.289C187.696 212.654 183.397 202.305 180.536 191.523C177.666 180.744 176.231 169.633 176.267 158.478C176.308 147.323 177.662 135.89 181.12 125.253C184.403 115.157 190.283 105.53 199.619 100.021C204.381 97.2281 209.816 95.7929 215.335 95.8708C221.165 95.926 226.914 97.4604 232.167 99.9449C237.311 102.378 242.015 105.657 246.361 109.313C250.504 112.792 254.37 116.589 257.925 120.668C264.967 128.766 270.721 138.142 273.935 148.423C277.284 159.138 277.871 170.857 274.763 181.701C271.777 192.116 265.237 200.994 257.208 208.125C248.531 215.831 238.253 221.432 227.888 226.515C225.294 227.787 222.686 229.03 220.078 230.273C219.371 230.61 219.988 231.659 220.692 231.324C231.621 226.115 242.657 220.862 252.4 213.59C260.996 207.174 268.658 199.119 273.216 189.308C278.037 178.933 279.025 167.136 277.027 155.942C275.074 145.002 270.176 134.763 263.619 125.846C260.362 121.434 256.741 117.302 252.795 113.493C248.747 109.496 244.327 105.894 239.595 102.736C229.895 96.3958 217.765 92.5674 206.27 95.833C196.05 98.7362 188.185 106.924 183.505 116.203C180.885 121.397 179.12 126.982 177.864 132.65C176.639 138.235 175.815 143.901 175.398 149.604C173.728 172.36 178.189 195.149 188.316 215.597C189.549 218.076 190.866 220.512 192.267 222.903C192.351 223.037 192.484 223.132 192.637 223.17C192.79 223.207 192.952 223.184 193.088 223.104C193.225 223.024 193.325 222.895 193.367 222.743C193.41 222.591 193.392 222.428 193.317 222.289Z" fill="#F0F0F0"/>
<path d="M185.612 210.53C179.991 200.894 175.692 190.546 172.831 179.763C169.961 168.984 168.526 157.873 168.562 146.718C168.603 135.564 169.957 124.13 173.415 113.493C176.697 103.398 182.578 93.7702 191.914 88.2612C196.675 85.4684 202.111 84.0332 207.63 84.1111C213.46 84.1663 219.209 85.7007 224.462 88.1852C229.606 90.6185 234.31 93.8977 238.656 97.5532C242.799 101.033 246.665 104.829 250.22 108.908C257.262 117.006 263.016 126.382 266.23 136.663C269.579 147.378 270.166 159.097 267.057 169.941C264.072 180.357 257.532 189.234 249.503 196.365C240.826 204.072 230.548 209.672 220.183 214.755C217.589 216.027 214.981 217.27 212.373 218.513C211.666 218.85 212.283 219.899 212.987 219.564C223.916 214.356 234.952 209.102 244.695 201.83C253.291 195.414 260.953 187.36 265.511 177.549C270.332 167.173 271.32 155.377 269.322 144.183C267.369 133.243 262.47 123.004 255.914 114.086C252.657 109.675 249.036 105.543 245.09 101.734C241.042 97.7364 236.622 94.1342 231.89 90.9758C222.19 84.6361 210.06 80.8077 198.565 84.0733C188.345 86.9765 180.48 95.1642 175.8 104.443C173.18 109.637 171.415 115.222 170.159 120.89C168.933 126.475 168.109 132.141 167.693 137.844C166.023 160.601 170.483 183.389 180.61 203.837C181.844 206.317 183.161 208.752 184.561 211.144C184.646 211.277 184.779 211.373 184.932 211.41C185.085 211.447 185.247 211.424 185.383 211.344C185.52 211.265 185.62 211.135 185.662 210.983C185.705 210.831 185.687 210.669 185.612 210.53Z" fill="#F0F0F0"/>
<path d="M74.8598 187.732C74.4307 187.127 74.1395 186.435 74.0067 185.705C73.874 184.975 73.9028 184.225 74.0914 183.507C74.2799 182.79 74.6234 182.122 75.0978 181.552C75.5722 180.982 76.1659 180.522 76.8371 180.206L90.8995 136.178L100.693 141.265L83.7907 182.944C84.2471 184.106 84.2611 185.396 83.8301 186.568C83.3991 187.741 82.553 188.714 81.4522 189.304C80.3513 189.894 79.0722 190.06 77.8572 189.771C76.6422 189.481 75.5757 188.755 74.8598 187.732Z" fill="#FFB6B6"/>
<path d="M86.348 142.266C86.2134 141.968 86.1447 141.645 86.1465 141.318C86.1484 140.991 86.2207 140.668 86.3587 140.372L91.1752 130.017C91.6504 128.413 92.7422 127.063 94.2112 126.263C95.6802 125.463 97.4066 125.278 99.0119 125.748C100.617 126.219 101.97 127.306 102.775 128.773C103.58 130.239 103.77 131.965 103.304 133.572L101.694 144.915C101.648 145.239 101.533 145.549 101.356 145.824C101.18 146.099 100.946 146.333 100.671 146.51C100.396 146.686 100.086 146.802 99.7619 146.848C99.4382 146.894 99.1084 146.87 98.7948 146.777L87.7758 143.512C87.4622 143.419 87.1723 143.26 86.9258 143.045C86.6794 142.83 86.4824 142.564 86.348 142.266Z" fill="#2F2E41"/>
<path d="M126.974 144.014C123.627 152.777 124.482 161.968 128.604 171.492H99.4057C100.579 164.715 100.103 158.418 95.7559 153.244L126.974 144.014Z" fill="#FFB6B6"/>
<path d="M92.8007 127.91L101.442 121.626L115.583 117.699L127.366 120.055L128.059 126.566C128.902 134.486 128.535 142.488 126.973 150.298L96.3358 157.368L93.1935 151.869C93.1935 151.869 86.1233 144.799 91.6224 136.944L92.8007 127.91Z" fill="#2F2E41"/>
<path d="M167.856 83.9546C168.048 84.671 168.082 85.4209 167.954 86.1516C167.825 86.8823 167.538 87.5759 167.113 88.1837C166.687 88.7915 166.134 89.2986 165.491 89.6693C164.849 90.04 164.132 90.2653 163.393 90.3294L134.947 126.759L127.522 118.594L157.819 85.3523C157.794 84.1036 158.227 82.8889 159.038 81.9385C159.848 80.9881 160.979 80.368 162.216 80.1958C163.454 80.0235 164.711 80.311 165.75 81.0037C166.79 81.6965 167.539 82.7465 167.856 83.9546Z" fill="#FFB6B6"/>
<path d="M141.326 122.624C141.349 122.95 141.302 123.278 141.187 123.584C141.072 123.89 140.892 124.168 140.66 124.398L132.554 132.443C131.553 133.783 130.061 134.671 128.405 134.913C126.75 135.155 125.066 134.731 123.723 133.733C122.38 132.735 121.487 131.246 121.241 129.591C120.994 127.937 121.414 126.252 122.408 124.906L127.848 114.823C128.004 114.535 128.219 114.285 128.48 114.088C128.741 113.891 129.041 113.752 129.361 113.682C129.68 113.611 130.011 113.611 130.33 113.68C130.65 113.748 130.951 113.885 131.213 114.081L140.419 120.961C140.681 121.157 140.897 121.406 141.054 121.693C141.211 121.981 141.304 122.298 141.326 122.624Z" fill="#2F2E41"/>
<path d="M92.8397 290.682H97.3139L99.4426 273.425H92.8389L92.8397 290.682Z" fill="#FFB6B6"/>
<path d="M91.3245 288.475L98.3976 288.053V291.084L105.122 295.727C105.454 295.957 105.704 296.286 105.836 296.668C105.968 297.049 105.974 297.463 105.854 297.848C105.734 298.234 105.493 298.571 105.168 298.81C104.843 299.049 104.45 299.178 104.047 299.178H95.6258L94.1743 296.181L93.6076 299.178H90.4326L91.3245 288.475Z" fill="#2F2E41"/>
<path d="M124.472 290.682H128.946L131.074 273.425H124.471L124.472 290.682Z" fill="#FFB6B6"/>
<path d="M122.955 288.475L130.028 288.053V291.084L136.753 295.727C137.085 295.957 137.335 296.286 137.467 296.668C137.599 297.049 137.605 297.463 137.485 297.848C137.365 298.234 137.124 298.571 136.799 298.81C136.474 299.049 136.081 299.178 135.677 299.178H127.257L125.805 296.181L125.238 299.178H122.063L122.955 288.475Z" fill="#2F2E41"/>
<path d="M136.358 193.993V202.793L135.498 213.543C135.498 213.543 135.226 222.93 134.898 230.335C134.699 234.836 134.476 238.603 134.281 239.09C134.042 239.686 134.099 241.312 134.237 243.019C134.399 244.994 134.667 247.078 134.711 247.776C134.797 249.078 134.107 254.669 134.107 254.669C134.107 254.669 133.337 268.692 132.217 269.811C131.098 270.93 132.217 274.114 132.217 274.114C126.97 277.982 120.343 273.254 120.343 273.254C121.807 270.922 119.483 255.006 119.483 255.006C119.483 255.006 119.143 249.572 118.454 248.112C117.764 246.653 117.59 237.533 117.59 237.533V224.025C117.59 224.025 115.781 221.26 115.526 219.97C115.27 218.681 115.526 214.123 115.526 214.123L113.636 207.756L112.342 212.744C112.342 212.744 108.992 226.681 108.388 228.401C107.784 230.12 108.729 231.844 108.729 231.844C108.729 231.844 109.593 234.496 108.729 235.712C108.192 236.474 107.781 237.318 107.512 238.21C107.512 238.21 107.07 243.287 106.296 245.104C105.521 246.92 104.836 249.159 104.836 249.159C104.836 249.159 105.018 252.589 104.244 253.364C103.469 254.138 103.214 258.011 103.214 258.011C103.214 258.011 103.384 262.394 102.35 263.943C101.316 265.492 101.316 274.268 101.316 274.268C99.5222 275.418 97.4555 276.072 95.3265 276.163C93.1976 276.253 91.0828 275.777 89.1982 274.783C89.1982 274.783 90.2202 273.826 89.4456 269.365C88.6711 264.904 90.0012 252.76 90.0012 252.76C90.0012 252.76 89.8309 249.678 90.6905 248.299C91.5503 246.92 90.2566 244.256 90.6014 243.052C90.9461 241.847 91.9802 235.307 91.9802 235.307C91.9802 235.307 91.5503 219.22 91.5503 218.36C91.4485 216.83 91.0345 215.337 90.3337 213.973C89.5592 212.598 90.3337 202.619 90.3337 202.619C90.3337 202.619 92.1586 197.461 91.5503 196.341C90.942 195.222 91.9558 193.243 91.9558 193.243C91.9558 193.243 91.0109 190.92 91.9558 190.49C92.9007 190.06 93.0752 188.341 93.0752 188.341L93.732 179.995C93.732 179.995 93.9795 176.208 94.7662 176.038C95.5529 175.867 95.2082 174.407 95.9828 173.373C96.3602 172.674 96.6205 171.918 96.7533 171.135C96.8628 170.657 96.9642 170.158 97.0493 169.679C97.2927 168.382 97.4428 167.262 97.4428 167.262C102.52 171.48 129.216 168.524 129.245 168.524C130.94 168.893 132.955 174.776 134.411 179.906C135.705 184.49 136.361 189.23 136.358 193.993Z" fill="#2F2E41"/>
<path d="M116.94 106.626C118.886 100.225 115.274 93.4589 108.873 91.5131C102.472 89.5673 95.7056 93.1788 93.7597 99.5795C91.8138 105.98 95.4255 112.746 101.827 114.692C108.228 116.638 114.994 113.026 116.94 106.626Z" fill="#FFB6B6"/>
<path d="M91.6567 105.214L96.3475 104.238L97.2112 98.013L98.8307 103.721L101.073 103.255L101.577 99.6235L102.521 102.953L119.181 99.487C118.838 97.8384 118.173 96.2735 117.225 94.8816C116.277 93.4898 115.065 92.2983 113.656 91.3751C112.248 90.4519 110.671 89.8152 109.017 89.5012C107.362 89.1872 105.662 89.2022 104.013 89.5452L101.599 90.0476C98.2693 90.7404 95.3512 92.7275 93.4866 95.5717C91.6221 98.4159 90.9638 101.884 91.6567 105.214Z" fill="#2F2E41"/>
<path d="M139.646 14.1316L139.615 14.1907C133.497 11.3724 126.53 11.0153 120.156 13.1935C113.782 15.3717 108.49 19.9182 105.377 25.891C102.264 31.8639 101.568 38.8054 103.433 45.2774C105.298 51.7494 109.582 57.256 115.396 60.6562L115.366 60.7153L161.953 84.994L186.233 38.4103C187.831 35.3512 188.811 32.0071 189.116 28.5692C189.421 25.1314 189.045 21.6671 188.01 18.3744C186.976 15.0818 185.302 12.0253 183.085 9.3798C180.869 6.73427 178.152 4.55154 175.091 2.95638C172.031 1.36123 168.685 0.38492 165.247 0.0832785C161.809 -0.218363 158.344 0.160573 155.053 1.19843C151.761 2.23628 148.706 3.9127 146.062 6.13185C143.419 8.351 141.238 11.0694 139.646 14.1316Z" fill="#48BD42"/>
<path d="M181.152 281.444L181.145 281.459C179.598 280.746 177.837 280.656 176.226 281.207C174.615 281.757 173.278 282.906 172.491 284.416C171.704 285.926 171.528 287.68 172 289.316C172.471 290.952 173.554 292.343 175.023 293.203L175.016 293.218L186.79 299.354L192.927 287.58C193.331 286.807 193.579 285.962 193.656 285.093C193.733 284.224 193.638 283.348 193.377 282.516C193.115 281.684 192.692 280.911 192.132 280.242C191.572 279.574 190.885 279.022 190.111 278.619C189.338 278.215 188.492 277.969 187.623 277.892C186.754 277.816 185.878 277.912 185.046 278.174C184.214 278.437 183.442 278.861 182.774 279.422C182.106 279.983 181.555 280.67 181.152 281.444Z" fill="#48BD42"/>
<path d="M24.9538 132.154V132.221C18.226 132.549 11.8822 135.453 7.23665 140.33C2.59115 145.207 -3.12774e-06 151.684 0 158.42C3.12774e-06 165.155 2.59117 171.633 7.23668 176.51C11.8822 181.387 18.226 184.291 24.9538 184.619V184.685L77.4884 184.685L77.4883 132.154C77.4917 128.703 76.8147 125.285 75.4961 122.095C74.1776 118.906 72.2432 116.007 69.8038 113.566C67.3643 111.124 64.4675 109.187 61.279 107.865C58.0904 106.544 54.6727 105.864 51.2211 105.864C47.7695 105.864 44.3517 106.544 41.1632 107.865C37.9746 109.187 35.0778 111.124 32.6384 113.566C30.1989 116.007 28.2646 118.906 26.946 122.095C25.6275 125.285 24.9505 128.703 24.9538 132.154Z" fill="#48BD42"/>
<path d="M269.785 300H7.28462C7.15655 300 7.03374 299.949 6.94319 299.859C6.85264 299.768 6.80176 299.645 6.80176 299.517C6.80176 299.389 6.85264 299.266 6.94319 299.176C7.03374 299.085 7.15655 299.034 7.28462 299.034H269.785C269.913 299.034 270.035 299.085 270.126 299.176C270.217 299.266 270.267 299.389 270.267 299.517C270.267 299.645 270.217 299.768 270.126 299.859C270.035 299.949 269.913 300 269.785 300Z" fill="#CACACA"/>
<path d="M227.991 181.781C233.357 181.748 238.545 179.854 242.67 176.423C246.87 172.891 249.635 167.946 250.443 162.519C250.917 159.45 250.764 156.317 249.993 153.31C249.946 153.159 249.842 153.033 249.704 152.957C249.565 152.882 249.403 152.863 249.251 152.905C249.099 152.947 248.969 153.046 248.888 153.182C248.808 153.318 248.784 153.48 248.82 153.633C250.121 158.74 249.534 164.144 247.168 168.853C245.35 172.374 242.601 175.328 239.219 177.393C235.837 179.459 231.953 180.556 227.991 180.565C227.833 180.57 227.684 180.637 227.574 180.75C227.465 180.863 227.403 181.015 227.403 181.173C227.403 181.331 227.465 181.482 227.574 181.596C227.684 181.709 227.833 181.776 227.991 181.781Z" fill="#F0F0F0"/>
<path d="M134.05 23.7716C130.588 20.486 125.123 20.4946 121.125 22.7819C116.639 25.3487 114.605 30.6527 114.708 35.6328C114.824 41.2377 117.564 46.3127 121.103 50.5161C124.874 54.8835 129.263 58.6771 134.131 61.7767C138.985 64.9378 144.237 67.4406 149.75 69.2195C150.429 69.4383 151.111 69.6456 151.796 69.8414C151.95 69.8781 152.112 69.8537 152.247 69.7734C152.383 69.6931 152.483 69.5632 152.525 69.4111C152.567 69.259 152.548 69.0965 152.472 68.958C152.397 68.8194 152.27 68.7156 152.12 68.6684C141.533 65.6434 131.908 59.933 124.179 52.0915C120.5 48.3233 117.23 43.7944 116.224 38.5233C115.336 33.8682 116.317 28.4632 119.926 25.1473C123.433 21.924 129.572 21.1982 133.189 24.6319C133.757 25.1708 134.619 24.312 134.05 23.7716Z" fill="white"/>
<path d="M24.054 144.951C19.3783 144.37 14.9872 147.658 13.166 151.812C11.1238 156.47 12.5007 161.839 15.463 165.775C18.7254 170.111 23.6671 172.638 28.8326 173.98C34.3775 175.42 40.2636 175.809 45.9715 175.543C52.7189 175.23 59.3774 173.877 65.7114 171.53C66.439 171.26 66.1242 170.084 65.388 170.357C54.8439 174.272 43.1057 175.507 32.0177 173.44C27.0614 172.516 22.0137 170.754 18.3203 167.188C14.9738 163.957 12.6063 159.064 13.6135 154.339C14.6142 149.644 19.0787 145.549 24.054 146.167C24.829 146.264 24.822 145.046 24.054 144.951Z" fill="white"/>
<path d="M101.843 85.3618C102.974 80.8414 100.784 75.9926 97.3922 72.797C94.0007 69.6013 89.5749 67.7647 85.1946 66.1745C81.7015 64.9064 77.6099 63.8033 74.4484 65.7565C71.9081 67.3259 70.8061 70.3744 69.3538 72.9834C66.5865 77.9552 62.1217 81.7647 56.7762 83.7152C51.4306 85.6657 45.5615 85.6269 40.2422 83.6059C42.1171 89.0484 48.5752 91.7105 54.3201 91.3408C60.0649 90.9711 65.371 88.3256 70.7226 86.2043C76.0741 84.0829 82.0271 82.4439 87.5274 84.1428C89.8489 84.8598 91.9603 86.1395 94.2588 86.927C96.5574 87.7145 99.2472 87.949 101.296 86.6425" fill="#2F2E41"/>
<path d="M182.307 250.925L178.391 244.033C178.307 243.899 178.174 243.804 178.021 243.766C177.867 243.729 177.705 243.753 177.569 243.832C177.433 243.912 177.333 244.041 177.29 244.193C177.248 244.345 177.266 244.508 177.341 244.647L181.257 251.539C181.341 251.673 181.474 251.768 181.627 251.806C181.78 251.843 181.942 251.82 182.079 251.74C182.215 251.66 182.315 251.531 182.357 251.379C182.4 251.227 182.382 251.064 182.307 250.925Z" fill="#F0F0F0"/>
</g>
<defs>
<clipPath id="clip0_1248_3251">
<rect width="278" height="300" fill="white"/>
</clipPath>
</defs>
</svg>
